# xmcd
#
# Track frame offsets:
#	150
#	17321
#	35546
#	48461
#	65276
#	82438
#	100507
#	112781
#	127505
#	143233
#
# Disc length: 2187 seconds
#
# Revision: 0
# Processed by: cddbd v1.4PL0 Copyright (c) Steve Scherf et al.
# Submitted via: dBpowerAMP V4.0
#
DISCID=7308890a
DTITLE=Switzer's, The - I'll Whorship Only
DYEAR=2000
DGENRE=Gospel
TTITLE0=I'm Not Givin' Up
TTITLE1=I'll Whorship Only At The Feet Of Jesus 
TTITLE2=Promises One By One
TTITLE3=Whisper Jesus
TTITLE4=Yesterday
TTITLE5=Wedding Music
TTITLE6=He Lifted My Burdens
TTITLE7=He Loves Me
TTITLE8=Ordinary Day
TTITLE9=Loving God
EXTD=
EXTT0=
EXTT1=
EXTT2=
EXTT3=
EXTT4=
EXTT5=
EXTT6=
EXTT7=
EXTT8=
EXTT9=
PLAYORDER=
